<svg width="24" height="21" viewBox="0 0 24 21" fill="none" xmlns="http://www.w3.org/2000/svg">
<path id="Vector" d="M13.7143 0C8.03429 0 3.42857 4.70167 3.42857 10.5H0L4.44571 15.0383L4.52571 15.2017L9.14286 10.5H5.71429C5.71429 5.985 9.29143 2.33333 13.7143 2.33333C18.1371 2.33333 21.7143 5.985 21.7143 10.5C21.7143 15.015 18.1371 18.6667 13.7143 18.6667C11.5086 18.6667 9.50857 17.745 8.06857 16.2633L6.44571 17.92C8.30857 19.8217 10.8686 21 13.7143 21C19.3943 21 24 16.2983 24 10.5C24 4.70167 19.3943 0 13.7143 0ZM12.5714 5.83333V11.6667L17.4286 14.6067L18.3086 13.1133L14.2857 10.675V5.83333H12.5714Z" fill="#817B7B"/>
</svg>
